<?xml version="1.0" encoding="utf-8"?>
<!-- Generator: Adobe Illustrator 26.0.3, SVG Export Plug-In . SVG Version: 6.00 Build 0)  -->
<svg version="1.1" xmlns="http://www.w3.org/2000/svg" xmlns:xlink="http://www.w3.org/1999/xlink" x="0px" y="0px"
	 viewBox="0 0 200 200" style="enable-background:new 0 0 200 200;" xml:space="preserve">
<style type="text/css">
	.st0{fill:#88B400;}
	.st1{fill:#FFFFFF;}
	.st2{display:none;}
	.st3{display:inline;}
	.st4{fill:#00BCC6;}
	.st5{fill:#535653;}
	.st6{font-family:'BentonSansBlack-Italic';}
	.st7{font-size:79.9477px;}
</style>
<g id="Capa_1">
	<path class="st0" d="M170,200H30c-16.5,0-30-13.5-30-30V30C0,13.5,13.5,0,30,0h140c16.5,0,30,13.5,30,30v140
		C200,186.5,186.5,200,170,200z"/>
	<g>
		<g>
			<path class="st1" d="M78.53,101.03c0,14.68-6.4,24.18-17.69,24.18c-11.39,0-17.8-9.5-17.8-24.18c0-14.68,6.4-23.64,17.8-23.64
				C72.13,77.39,78.53,86.35,78.53,101.03 M123.57,61.09h-17.8l-5.55,39.27C99.92,71.6,80.01,59.58,60.85,59.58
				c-19.42,0-39.5,12.2-39.5,41.45s20.07,41.45,39.5,41.45c15.37,0,31.22-7.74,37.05-25.65l-3.41,24.13h17.8L123.57,61.09z"/>
			<path class="st1" d="M160.46,105.99h-17.8c1.95-5.83,5.53-9.07,10.2-9.07C159.16,96.92,160.68,100.49,160.46,105.99
				 M154.06,82.03c-10.09,0-33.96,5.18-33.96,35.3c0,17.59,12.48,24.83,28.43,24.83c12.48,0,21.05-3.02,27.02-7.56l-7.81-12.31
				c-4.12,2.7-9.55,5.29-16.06,5.29c-5.86,0-10.53-1.62-10.63-9.39h36.24l0.54-3.24C181.73,91.74,171.53,82.03,154.06,82.03"/>
		</g>
		<polygon points="157.85,77.06 177.82,57.53 157.2,57.53 143.64,77.06 		"/>
	</g>
</g>
<g id="Capa_3" class="st2">
	<g class="st3">
		<path class="st0" d="M170,200H30c-16.5,0-30-13.5-30-30V30C0,13.5,13.5,0,30,0h140c16.5,0,30,13.5,30,30v140
			C200,186.5,186.5,200,170,200z"/>
		<g>
			<g>
				<path class="st1" d="M80.96,87.4c0,13.27-5.79,21.86-15.99,21.86c-10.3,0-16.09-8.59-16.09-21.86
					c0-13.27,5.79-21.38,16.09-21.38C75.17,66.02,80.96,74.12,80.96,87.4 M121.68,51.28h-16.09l-5.02,35.51
					C100.3,60.79,82.3,49.92,64.97,49.92c-17.56,0-35.72,11.03-35.72,37.48s18.15,37.48,35.72,37.48c13.9,0,28.23-7,33.5-23.19
					l-3.08,21.82h16.09L121.68,51.28z"/>
				<path class="st1" d="M155.04,91.89h-16.09c1.77-5.27,5-8.2,9.22-8.2C153.87,83.69,155.24,86.91,155.04,91.89 M149.25,70.22
					c-9.13,0-30.71,4.69-30.71,31.92c0,15.91,11.28,22.45,25.71,22.45c11.28,0,19.04-2.73,24.43-6.83l-7.06-11.13
					c-3.73,2.44-8.63,4.78-14.52,4.78c-5.3,0-9.52-1.46-9.62-8.49h32.77l0.49-2.93C174.27,79,165.05,70.22,149.25,70.22"/>
			</g>
			<polygon points="152.69,65.73 170.74,48.06 152.1,48.06 139.83,65.73 			"/>
		</g>
		<g>
			<path d="M36.21,147.25h-0.58l-1.03,7.27h-5.06l3.15-22.42h5.27c4.12,0,6.61,1.97,6.61,6.18c0,0.55-0.03,1.12-0.12,1.73
				c-0.36,2.7-1.52,4.79-3.42,6l1.76,8.52H37.7L36.21,147.25z M37.09,143.13c1.09,0,1.91-0.54,2.3-3.33
				c0.06-0.46,0.09-0.85,0.09-1.18c0-1.67-0.64-2.09-1.82-2.09h-0.55l-0.91,6.61H37.09z"/>
			<path d="M47.58,132.1h10.79l-0.64,4.42h-5.58l-0.58,4.21h3.88l-0.58,4.12H51l-0.76,5.39h5.79l-0.61,4.27h-11L47.58,132.1z"/>
			<path d="M57.18,147.53l4.58-0.76c0.06,2.36,0.36,3.76,1.94,3.76c1.06,0,1.45-0.76,1.45-1.67c0-2.64-6.27-5.94-6.27-10.76
				c0-4.21,2.91-6.33,6.7-6.33c4.45,0,5.7,2.67,6,6.73l-4.7,1.09c-0.12-2.24-0.48-3.36-1.67-3.36c-0.67,0-1.18,0.42-1.18,1.33
				c0,2.39,6.24,5.85,6.24,10.61c0,4.21-2.85,6.67-6.73,6.67C58.33,154.83,57.24,151.56,57.18,147.53z"/>
			<path d="M71.94,147.07l2.09-14.97h5.18l-2.12,15.15c-0.36,2.45-0.06,3.12,1.18,3.12c0.97,0,1.48-0.64,1.82-3.06l2.15-15.21h4.85
				l-2.18,15.58c-0.7,5-2.64,7.03-6.88,7.03C73.03,154.71,71.24,151.92,71.94,147.07z"/>
			<path d="M89.27,132.1h5.21l-2.55,18.15h5.64l-0.61,4.27H86.12L89.27,132.1z"/>
			<path d="M101.97,136.53h-3.64l0.64-4.42h12.49l-0.64,4.42h-3.64l-2.51,18h-5.21L101.97,136.53z"/>
			<path d="M114.42,132.01h5.49l1.39,22.52h-5l-0.06-4.21h-3.73l-1.24,4.21h-4.58L114.42,132.01z M116.21,146.8v-0.73
				c-0.03-3.18-0.18-5.24-0.09-7.73H116c-0.88,3.67-1.49,5.15-2.21,7.61l-0.24,0.85H116.21z"/>
			<path d="M125.64,132.1h4.61c4.76,0,8.09,1.67,8.09,8.15c0,1.06-0.09,2.27-0.27,3.61c-1.33,9.58-5.52,10.67-9.76,10.67h-5.82
				L125.64,132.1z M129.18,150.19c2.09,0,2.85-1.24,3.61-6.7c0.21-1.58,0.36-2.82,0.36-3.82c0-2.36-0.76-3.15-2.67-3.15h-0.27
				l-1.91,13.67H129.18z"/>
			<path d="M138.79,146.32c0-1.06,0.09-2.24,0.27-3.55c1.18-8.3,4.82-10.94,8.54-10.94c4,0,6.55,2.64,6.55,8.46
				c0,1.06-0.09,2.27-0.27,3.58c-1.18,8.3-4.79,10.91-8.49,10.91C141.4,154.77,138.79,152.13,138.79,146.32z M148.61,143.53
				c0.24-1.64,0.36-3,0.36-4.06c0-2.06-0.49-3.03-1.67-3.03c-1.52,0-2.3,1.85-2.97,6.67c-0.21,1.64-0.36,3-0.36,4.06
				c0,2.09,0.48,3.15,1.7,3.15C147.15,150.32,147.94,148.35,148.61,143.53z"/>
			<path d="M154.09,147.53l4.58-0.76c0.06,2.36,0.36,3.76,1.94,3.76c1.06,0,1.45-0.76,1.45-1.67c0-2.64-6.27-5.94-6.27-10.76
				c0-4.21,2.91-6.33,6.7-6.33c4.45,0,5.7,2.67,6,6.73l-4.7,1.09c-0.12-2.24-0.49-3.36-1.67-3.36c-0.67,0-1.18,0.42-1.18,1.33
				c0,2.39,6.24,5.85,6.24,10.61c0,4.21-2.85,6.67-6.73,6.67C155.24,154.83,154.15,151.56,154.09,147.53z"/>
		</g>
	</g>
</g>
<g id="Capa_2" class="st2">
	<g class="st3">
		<path class="st4" d="M170,200H30c-16.5,0-30-13.5-30-30V30C0,13.5,13.5,0,30,0h140c16.5,0,30,13.5,30,30v140
			C200,186.5,186.5,200,170,200z"/>
		<g>
			<g>
				<path class="st1" d="M82.35,69.8c0,12.07-5.27,19.89-14.55,19.89c-9.37,0-14.64-7.81-14.64-19.89
					c0-12.07,5.27-19.44,14.64-19.44C77.08,50.36,82.35,57.73,82.35,69.8 M119.38,36.95h-14.64l-4.56,32.3
					C99.93,45.6,83.56,35.71,67.8,35.71c-15.97,0-32.48,10.03-32.48,34.09s16.51,34.09,32.48,34.09c12.64,0,25.67-6.37,30.47-21.09
					l-2.8,19.85h14.64L119.38,36.95z"/>
				<path class="st1" d="M149.72,73.88h-14.64c1.61-4.79,4.55-7.46,8.39-7.46C148.65,66.43,149.9,69.36,149.72,73.88 M144.46,54.18
					c-8.3,0-27.93,4.26-27.93,29.03c0,14.47,10.26,20.42,23.38,20.42c10.26,0,17.31-2.49,22.22-6.21l-6.43-10.12
					c-3.39,2.22-7.85,4.35-13.21,4.35c-4.82,0-8.66-1.33-8.75-7.72h29.81l0.45-2.66C167.21,62.17,158.82,54.18,144.46,54.18"/>
			</g>
			<polygon class="st1" points="147.58,50.09 164,34.03 147.05,34.03 135.89,50.09 			"/>
		</g>
		<text transform="matrix(1 0 0 1 15.1763 162.1266)" class="st5 st6 st7">tevé</text>
	</g>
</g>
</svg>
