<svg xmlns:xlink="http://www.w3.org/1999/xlink" xmlns="http://www.w3.org/2000/svg" style="width:105px;height:88px" fill="#fff" width="106"  height="56" ><symbol version="1.1" id="logoOle" xmlns="http://www.w3.org/2000/svg" xmlns:xlink="http://www.w3.org/1999/xlink" x="0px" y="0px" xml:space="preserve" viewBox="0 0 106 56" fill="#FFFFFF"><g fill="#FFFFFF"><defs><rect id="SVGID_1_" y="0" width="106" height="56"></rect><rect id="SVGID_1_" y="0" width="106" height="56"></rect><symbol version="1.1" id="logoOle" xmlns="http://www.w3.org/2000/svg" xmlns:xlink="http://www.w3.org/1999/xlink" x="0px" y="0px" xml:space="preserve" viewBox="0 0 106 56" fill="#FFFFFF"><g fill="#FFFFFF"><defs><rect id="SVGID_1_" y="0" width="106" height="56"></rect></defs><clipPath id="SVGID_00000126324274903181277730000007397703790173794949_" fill="#FFFFFF"><use xlink:href="#SVGID_1_" fill="#FFFFFF"></use></clipPath><g id="Grupo_268" fill="#FFFFFF"><path id="Trazado_1871" d="M38.53,28.68c0,9.68-4.31,15.94-11.92,15.94c-7.68,0-11.99-6.26-11.99-15.94 s4.31-15.58,11.99-15.58C34.22,13.09,38.53,19,38.53,28.68 M68.88,2.35H56.89l-3.74,25.89C52.94,9.28,39.53,1.35,26.62,1.35 C13.53,1.35,0,9.39,0,28.68S13.53,56,26.62,56c10.36,0,21.04-5.1,24.97-16.91L49.28,55h11.99L68.88,2.35z" fill="#FFFFFF"></path><path id="Trazado_1872" d="M93.74,31.95H81.75c1.32-3.84,3.73-5.98,6.87-5.98C92.86,25.97,93.89,28.32,93.74,31.95 M89.43,16.15c-6.8,0-22.89,3.42-22.89,23.27c0,11.6,8.41,16.37,19.16,16.37c8.41,0,14.19-1.99,18.21-4.98l-5.26-8.11 c-3.2,2.18-6.95,3.39-10.82,3.49c-3.95,0-7.09-1.07-7.17-6.19h24.42l0.37-2.13C108.07,22.55,101.2,16.15,89.43,16.15" fill="#FFFFFF"></path><path id="Trazado_1873" fill="#020005" d="M91.99,12.88L105.44,0H91.55l-9.14,12.88H91.99z"></path></g></g></symbol></defs><clipPath id="SVGID_00000126324274903181277730000007397703790173794949_" fill="#FFFFFF"><use xlink:href="#SVGID_1_" fill="#FFFFFF"></use></clipPath><g id="Grupo_268" fill="#FFFFFF"><path id="Trazado_1871" d="M38.53,28.68c0,9.68-4.31,15.94-11.92,15.94c-7.68,0-11.99-6.26-11.99-15.94 s4.31-15.58,11.99-15.58C34.22,13.09,38.53,19,38.53,28.68 M68.88,2.35H56.89l-3.74,25.89C52.94,9.28,39.53,1.35,26.62,1.35 C13.53,1.35,0,9.39,0,28.68S13.53,56,26.62,56c10.36,0,21.04-5.1,24.97-16.91L49.28,55h11.99L68.88,2.35z" fill="#FFFFFF"></path><path id="Trazado_1872" d="M93.74,31.95H81.75c1.32-3.84,3.73-5.98,6.87-5.98C92.86,25.97,93.89,28.32,93.74,31.95 M89.43,16.15c-6.8,0-22.89,3.42-22.89,23.27c0,11.6,8.41,16.37,19.16,16.37c8.41,0,14.19-1.99,18.21-4.98l-5.26-8.11 c-3.2,2.18-6.95,3.39-10.82,3.49c-3.95,0-7.09-1.07-7.17-6.19h24.42l0.37-2.13C108.07,22.55,101.2,16.15,89.43,16.15" fill="#FFFFFF"></path><path id="Trazado_1873" fill="#020005" d="M91.99,12.88L105.44,0H91.55l-9.14,12.88H91.99z"></path></g></g></symbol><use xlink:href="#logoOle" fill="#FFFFFF"></use></svg>